<?xml version="1.0" encoding="UTF-8" standalone="no"?>
<svg
   xmlns:dc="http://purl.org/dc/elements/1.1/"
   xmlns:cc="http://creativecommons.org/ns#"
   xmlns:rdf="http://www.w3.org/1999/02/22-rdf-syntax-ns#"
   xmlns:svg="http://www.w3.org/2000/svg"
   xmlns="http://www.w3.org/2000/svg"
   xmlns:sodipodi="http://sodipodi.sourceforge.net/DTD/sodipodi-0.dtd"
   xmlns:inkscape="http://www.inkscape.org/namespaces/inkscape"
   enable-background="new 0 0 256 256"
   height="512"
   viewBox="0 0 256 256"
   width="512"
   version="1.1"
   id="svg1099"
   sodipodi:docname="logo.svg"
   inkscape:version="1.0.2 (e86c870879, 2021-01-15, custom)">
  <metadata
     id="metadata1105">
    <rdf:RDF>
      <cc:Work
         rdf:about="">
        <dc:format>image/svg+xml</dc:format>
        <dc:type
           rdf:resource="http://purl.org/dc/dcmitype/StillImage" />
        <dc:title></dc:title>
      </cc:Work>
    </rdf:RDF>
  </metadata>
  <defs
     id="defs1103" />
  <sodipodi:namedview
     pagecolor="#ffffff"
     bordercolor="#666666"
     borderopacity="1"
     objecttolerance="10"
     gridtolerance="10"
     guidetolerance="10"
     inkscape:pageopacity="0"
     inkscape:pageshadow="2"
     inkscape:window-width="1366"
     inkscape:window-height="751"
     id="namedview1101"
     showgrid="false"
     inkscape:zoom="0.78997086"
     inkscape:cx="260.44918"
     inkscape:cy="260.44918"
     inkscape:window-x="0"
     inkscape:window-y="0"
     inkscape:window-maximized="0"
     inkscape:current-layer="svg1099" />
  <path
     d="m243.78 179.141c.145.6.292 1.167.437 1.679.657 2.323-.647 4.746-2.964 5.428l-.014.004c-2.305.678-4.761-.619-5.425-2.927-.293-1.02-.539-2.053-.75-3.094-2.836 1.944-5.719 5.752-4.126 13.011 0 0 .709 3.768.222 6.292-.1.521.456.918.924.667l1.918-1.03c.435-.233.964.095.936.587-.123 2.139.033 6.823 3.207 10.271 2.121 2.304 2.565 4.131 2.48 5.382-.038.56.646.866 1.07.498 3.012-2.61 8.759-8.467 8.228-14.767-.035-.413.306-.756.714-.687l1.517.256c.335.056.655-.157.726-.489.658-3.078 2.993-17.325-9.1-21.081z"
     fill="#52565b"
     id="path979" />
  <path
     d="m77.193 35.018c-2.149.076-4.286-.44-6.164-1.487-18.322-10.223-56.603 14.279-49.111 43.017 1.266 4.855 3.474 8.682 6.191 11.715.01-.028.015-.056.025-.084 2.825-7.821 10.942-12.69 19.176-11.524 5.12.725 9.327 3.494 12.037 7.303 1.201 1.688 3.406 2.22 5.245 1.266 4.148-2.154 9.155-2.699 14.042-1.01 7.859 2.717 12.862 10.753 11.81 19.001-.004.029-.012.057-.016.086 3.801-1.461 7.511-3.859 10.852-7.603 19.774-22.158-3.12-61.422-24.087-60.68z"
     fill="#e3e4e5"
     id="path981" />
  <path
     d="m219.971 178.883c-.337-2.134-.061-4.325.799-6.307 14.643-33.757 10.426-56.812 7.232-66.538-1.366-4.159-3.7-7.977-7.031-10.817-12.582-10.729-33.688-5.642-75.25-1.312-16.843 1.754-29.7-1.47-39.286-6.361-1.211 2.882-2.904 5.628-5.155 8.151-3.341 3.744-7.051 6.142-10.852 7.603-1.413 10.673-11.66 17.504-21.844 15.047-.738-.178-1.445-.415-2.137-.677-3.584 5.223-8.98 8.1-14.128 6.858-.09-.022-.176-.054-.266-.078.689 9.228.968 19.115 3.122 30.316 4.078 21.206 22.946 27.623 29.453 29.224 1.41.347 2.497 1.454 2.82 2.87 3.468 15.167 2.038 36.355 1.526 42.421-.085 1.004-.699 1.879-1.597 2.335-5.589 2.839-7.482 7.695-8.123 10.66-.283 1.31.741 2.541 2.082 2.541h24.747c.939 0 1.785-.615 2.038-1.519 1.53-5.459-.216-9.284-1.071-10.719-.281-.472-.48-.99-.556-1.534-.512-3.638-2.007-17.423 3.108-26.8 4.124-7.56 4.906-14.166 4.999-17.496.033-1.186 1.128-2.031 2.291-1.799 30.314 6.032 56.777-3.844 66.708-8.343 2.121-.961 4.609.029 5.486 2.186 3.229 7.94 9.848 13.022 13.304 15.247 1.373.884 2.075 2.512 1.823 4.125-1.838 11.768-6.249 22.627-8.353 27.348-.638 1.431-1.756 2.613-3.197 3.227-7.062 3.011-9.516 8.94-10.368 12.695-.393 1.732.901 3.383 2.676 3.383h25.663c1.23 0 2.347-.751 2.79-1.898 1.518-3.924.699-7.351-.073-9.288-.502-1.26-.58-2.642-.235-3.954l8.687-33.009c.403-1.53.483-3.126.236-4.689z"
     fill="#e3e4e5"
     id="path983" />
  <path
     d="m79.31 243.33c-.05-.159-.083-.323-.093-.493-.002-.025-.01-.049-.01-.074-.004-.159.011-.322.047-.485.641-2.965 2.535-7.821 8.123-10.66.899-.456 1.513-1.331 1.597-2.335.512-6.066 1.942-27.255-1.526-42.421-.324-1.415-1.411-2.523-2.82-2.87-2.898-.713-8.249-2.386-13.652-5.892.483 5.94 5.883 18.877 3.155 51.183-.085 1.004-.699 1.879-1.597 2.335-5.589 2.839-7.482 7.695-8.123 10.66-.283 1.31.741 2.541 2.082 2.541h14.843c-.966-.001-1.759-.643-2.026-1.489z"
     fill="#e3e4e5"
     id="path985" />
  <path
     d="m202.39 194.041c-.723-.465-1.589-1.063-2.529-1.779 0 0 .001.001.001.001-2.364 4.822-6.425 8.652-11.399 10.74-2.117 9.828-5.635 18.446-7.447 22.511-.638 1.431-1.756 2.613-3.197 3.227-7.062 3.011-9.516 8.94-10.368 12.695-.393 1.732.901 3.383 2.676 3.383h14.844c-1.776 0-3.069-1.651-2.676-3.383.852-3.756 3.306-9.684 10.368-12.695 1.441-.614 2.56-1.796 3.197-3.227 2.104-4.721 6.515-15.58 8.353-27.348.252-1.613-.45-3.242-1.823-4.125z"
     fill="#e3e4e5"
     id="path987" />
  <path
     d="m 213.424,242.921 c 1.518,-3.924 0.699,-7.351 -0.073,-9.288 -0.178,-0.447 -0.283,-0.911 -0.355,-1.379 -8.261,0.542 -16.035,-3.393 -18.484,-4.777 -0.53,0.53 -1.15,0.966 -1.85,1.265 -7.062,3.011 -9.516,8.94 -10.368,12.695 -0.393,1.732 0.901,3.383 2.676,3.383 h 25.663 c 1.23,-0.002 2.348,-0.753 2.791,-1.899 z"
     id="path989"
     style="fill:#52565b" />
  <path
     d="m 108.121,243.299 c 1.53,-5.459 -0.216,-9.284 -1.071,-10.719 -0.09,-0.151 -0.155,-0.313 -0.226,-0.472 -7.452,1.449 -14.963,-0.845 -18.064,-1.996 -0.264,0.641 -0.746,1.181 -1.383,1.504 -5.589,2.839 -7.482,7.695 -8.123,10.66 -0.283,1.31 0.741,2.541 2.082,2.541 h 24.747 c 0.939,0.001 1.784,-0.614 2.038,-1.518 z"
     id="path991"
     style="fill:#52565b" />
  <path
     d="m 182.295,241.436 c 0.662,-2.916 2.3,-7.136 6.3,-10.29 -4.166,-1.149 -7.478,-2.853 -8.925,-3.67 -0.53,0.53 -1.15,0.966 -1.85,1.265 -7.062,3.011 -9.516,8.94 -10.368,12.695 -0.393,1.732 0.901,3.383 2.676,3.383 h 14.844 c -1.777,-10e-4 -3.07,-1.652 -2.677,-3.383 z"
     id="path993"
     style="fill:#52565b" />
  <path
     d="m 79.254,242.277 c 0.576,-2.663 2.172,-6.849 6.541,-9.732 -5.132,-0.192 -9.648,-1.604 -11.878,-2.433 -0.264,0.641 -0.746,1.181 -1.383,1.504 -5.589,2.839 -7.482,7.695 -8.123,10.66 -0.283,1.31 0.741,2.541 2.082,2.541 h 14.843 c -1.341,0.001 -2.366,-1.23 -2.082,-2.54 z"
     id="path995"
     style="fill:#52565b" />
  <path
     d="m 89.079,108.124 c -3.38,7.797 -11.951,12.285 -20.495,10.224 -0.738,-0.178 -1.445,-0.415 -2.137,-0.677 -3.584,5.223 -8.98,8.1 -14.128,6.858 -0.091,-0.022 -0.178,-0.054 -0.268,-0.078 0.69,9.229 0.97,19.115 3.124,30.317 0.178,0.924 0.393,1.81 0.624,2.678 1.072,0.186 2.169,0.288 3.285,0.29 11.311,0.026 19.878,-8.998 20.326,-19.398 0.193,-4.487 2.67,-8.539 6.512,-10.865 6.26,-3.791 9.897,-10.831 6.913,-16 -0.897,-1.555 -2.21,-2.641 -3.756,-3.349 z"
     id="path997"
     style="fill:#52565b" />
  <path
     d="m 145.658,121.075 c 1.825,4.385 6.15,7.468 11.196,7.468 7.009,0 12.132,-5.759 12.132,-12.134 0,-2.584 1.682,-4.805 4.118,-5.665 6.82,-2.409 11.621,-9.082 11.183,-16.824 -0.083,-1.464 -0.367,-2.882 -0.812,-4.231 -10.271,0.978 -22.657,2.647 -37.754,4.22 -7.54,0.785 -14.279,0.571 -20.286,-0.342 -0.229,1.016 -0.398,2.054 -0.46,3.121 -0.595,10.214 6.596,18.964 16.301,20.668 2.012,0.352 3.596,1.832 4.382,3.719 z"
     id="path999"
     style="fill:#52565b" />
  <path
     d="m 230.028,114.256 c -5.222,-0.484 -9.846,2.276 -12.095,6.501 -0.756,1.42 -2.236,2.299 -3.837,2.459 -9.318,0.931 -16.422,8.805 -16.422,18.193 0,8.157 5.339,15.056 12.712,17.419 1.708,0.547 2.961,2.056 3.234,3.828 0.625,4.064 3.892,7.293 8.022,7.851 10.566,-25.377 10.44,-44.518 8.386,-56.251 z"
     id="path1001"
     style="fill:#52565b" />
  <path
     d="m 147.021,146.023 c -3.529,-0.536 -6.487,-2.837 -8.36,-5.876 -1.924,-3.12 -5.378,-5.171 -9.267,-5.171 -7.625,0 -12.582,7.498 -10.356,14.244 0.48,1.455 0.519,3.047 -0.178,4.411 -0.856,1.678 -1.341,3.576 -1.341,5.59 0,7.187 6.085,12.776 13.074,12.345 1.551,-0.096 3.077,0.356 4.264,1.359 2.985,2.521 6.942,3.925 11.234,3.555 7.554,-0.652 13.598,-6.935 13.961,-14.508 0.396,-8.261 -5.612,-14.823 -13.031,-15.949 z"
     id="path1003"
     style="fill:#52565b" />
  <path
     d="M 60.026,73.019 C 63.167,60.003 56.379,47.198 44.864,44.42 39.742,43.184 34.549,44.145 30.083,46.733 23.016,54.835 19.004,65.37 21.918,76.548 c 1.266,4.855 3.474,8.682 6.191,11.715 0.01,-0.028 0.015,-0.056 0.025,-0.084 2.825,-7.821 10.942,-12.69 19.176,-11.524 3.669,0.52 6.858,2.101 9.374,4.351 1.486,-2.378 2.636,-5.062 3.342,-7.987 z"
     id="path1005"
     style="fill:#52565b" />
  <path
     d="m140.478 56.553c-7.831-6.392-16.931-6.419-23.544-2.377-3.763 2.3-8.53 2.952-12.211 3.054 2.362 5.161 3.85 10.788 4.083 16.391 17.454 7.086 28.723-7.446 32.34-13.162.81-1.281.506-2.948-.668-3.906z"
     fill="#f98080"
     id="path1009" />
  <path
     d="m25.342 53.376c.043-.075.085-.151.128-.226.306-.529.624-1.051.956-1.566.032-.05.066-.1.099-.15.321-.494.654-.982.998-1.463.031-.044.061-.088.093-.132.364-.504.74-1 1.126-1.489.047-.059.095-.118.142-.177 2.198-2.749 4.747-5.247 7.515-7.432-3.229-1.769-7.175-4.524-9.475-8.287-4.042-6.613-12.153-10.739-22.037-8.622-1.482.317-2.512 1.662-2.375 3.171.612 6.736 4.014 24.808 22.778 26.462.017-.028.034-.059.052-.089z"
     fill="#f98080"
     id="path1011" />
  <path
     d="m104.723 57.229c3.681-.102 8.448-.754 12.211-3.054 1.24-.758 2.567-1.373 3.957-1.829.149-.049.302-.084.452-.129 3.712-4.137 4.613-9.948 4.358-15.415-.161-3.437-4.527-4.66-6.482-1.828-5.167 7.487-15.202 10.157-21.56 11.11 2.775 3.256 5.191 7.054 7.064 11.145z"
     fill="#f4dbce"
     id="path1013" />
  <path
     d="m26.924 32.456c2.3 3.763 6.245 6.517 9.475 8.287 3.528-2.784 7.406-5.061 11.356-6.693-5.224-3.745-12.95-10.703-14.136-19.731-.448-3.412-4.892-4.315-6.602-1.329-2.716 4.742-4.563 10.315-3.158 15.681 1.183 1.131 2.218 2.399 3.065 3.785z"
     fill="#f4dbce"
     id="path1015" />
  <path
     d="m243.195 155.757c2.341-14.044 17.333-53.899-19.478-57.691 1.901 2.351 3.334 5.074 4.285 7.972.29.884.589 1.882.881 2.984 5.11 1.758 9.858 5.968 9.858 15.563 0 19.295-8.105 40.723-2.927 58.739.664 2.309 3.12 3.605 5.425 2.927l.014-.004c2.317-.681 3.621-3.104 2.964-5.428-1.363-4.819-2.931-13.612-1.022-25.062z"
     fill="#e3e4e5"
     id="path1017" />
  <path
     d="m140.478 56.553c-7.831-6.392-16.931-6.419-23.544-2.377-3.763 2.3-8.53 2.952-12.211 3.054 1.183 2.585 2.151 5.286 2.848 8.044 3.418.041 7.339-.839 11.586-3.436 9.228-5.64 17.612-4.305 22.415-2.64.102-.979-.281-1.982-1.094-2.645z"
     fill="#e3e4e5"
     id="path1019" />
  <path
     d="m36.399 40.742c-3.229-1.769-7.175-4.524-9.475-8.287-4.042-6.613-12.153-10.739-22.037-8.622-1.026.22-1.825.937-2.18 1.855 5.034.709 13.104 3.344 18.745 12.572 2.596 4.248 5.684 6.819 8.744 8.342 1.878-2.136 3.971-4.099 6.203-5.86z"
     fill="#e3e4e5"
     id="path1021" />
  <path
     d="m58.497 111.413c-1.19-1.677-3.388-2.207-5.212-1.258-3.121 1.626-6.73 2.328-10.408 1.864.817 6.266 4.304 11.27 9.442 12.51 5.157 1.244 10.564-1.645 14.148-6.885-3.285-1.294-6.021-3.485-7.97-6.231z"
     fill="#e3e4e5"
     id="path1023" />
  <path
     d="m58.45 111.401c-1.19-1.677-3.388-2.207-5.212-1.258-1.65.859-3.439 1.452-5.3 1.759 1.404 3.051 3.434 5.11 5.995 5.728 2.613.631 5.416-.329 8.106-2.493-1.381-1.069-2.59-2.328-3.589-3.736z"
     fill="#fd605b"
     id="path1025" />
  <path
     d="m199.862 192.263c-3.553-2.705-8.223-7.189-10.777-13.469-.877-2.157-3.365-3.147-5.486-2.186-4.99 2.261-14.157 5.878-25.887 8.154 1.145 11.223 10.624 19.979 22.149 19.979 8.785-.001 16.379-5.089 20.001-12.478z"
     fill="#fd605b"
     id="path1027" />
  <path
     d="m90.444 103.215c1.052-8.249-3.951-16.284-11.81-19.001-4.887-1.69-9.894-1.144-14.042 1.01-1.839.955-4.044.423-5.245-1.266-2.709-3.809-6.916-6.578-12.037-7.303-8.234-1.166-16.351 3.703-19.176 11.524-3.673 10.167 2.341 20.973 12.553 23.437 4.345 1.048 8.695.397 12.369-1.516 1.824-.95 4.022-.419 5.212 1.258 2.397 3.379 5.972 5.942 10.316 6.99 10.212 2.464 20.492-4.41 21.86-15.133z"
     fill="#f98080"
     id="path1029" />
  <path
     d="m210.634 247.318h-25.663c-1.603 0-3.095-.718-4.095-1.969-1.006-1.26-1.378-2.888-1.02-4.467.882-3.887 3.592-10.931 11.826-14.441.818-.349 1.491-1.04 1.895-1.945 1.848-4.147 6.345-15.052 8.167-26.716.102-.653-.175-1.295-.707-1.637-3.842-2.473-10.806-7.894-14.267-16.407-.165-.407-.479-.719-.885-.881-.407-.162-.852-.151-1.253.031-10.114 4.582-36.842 14.541-67.56 8.648-.189 3.697-1.169 10.382-5.275 17.91-4.829 8.852-3.202 22.591-2.827 25.255.027.191.104.394.228.601.999 1.677 3.126 6.267 1.331 12.675-.552 1.969-2.379 3.345-4.445 3.345h-24.749c-1.409 0-2.724-.629-3.609-1.727-.875-1.086-1.209-2.487-.916-3.844.687-3.174 2.825-9.002 9.434-12.36.137-.069.228-.19.238-.315.509-6.034 1.909-26.869-1.471-41.655-.113-.496-.489-.879-.981-1-6.233-1.533-26.913-8.312-31.311-31.178-1.749-9.095-2.271-17.157-2.776-24.955-.124-1.913-.246-3.793-.384-5.647-.06-.808.274-1.595.898-2.111.624-.517 1.458-.7 2.241-.49l.215.063c3.942.952 8.343-1.286 11.471-5.844.652-.95 1.87-1.331 2.948-.923.699.265 1.282.451 1.836.584 4.211 1.015 8.678.192 12.253-2.26 3.626-2.487 5.944-6.282 6.526-10.685.12-.908.727-1.677 1.582-2.005 3.733-1.435 7.059-3.768 9.884-6.934 1.985-2.224 3.571-4.732 4.715-7.455.269-.641.793-1.141 1.446-1.38.655-.238 1.376-.194 1.995.121 10.853 5.537 23.601 7.589 37.891 6.102 7.294-.76 14.08-1.558 20.067-2.262 29.572-3.476 45.865-5.392 57.064 4.158 3.511 2.994 6.202 7.123 7.784 11.94 3.591 10.937 7.417 34.355-7.313 68.313-.672 1.549-.887 3.25-.624 4.922l2.068 13.098c.303 1.916.206 3.839-.288 5.715l-8.687 33.009c-.212.805-.164 1.632.14 2.393.83 2.083 1.945 6.298.082 11.115-.806 2.091-2.865 3.495-5.119 3.495zm-25.342-73.581c.826 0 1.652.158 2.445.474 1.68.67 2.982 1.964 3.664 3.642 2.943 7.239 8.996 11.933 12.342 14.086 2.193 1.412 3.347 4.008 2.94 6.613-1.846 11.816-6.143 22.603-8.541 27.98-.919 2.062-2.517 3.663-4.5 4.509-5.88 2.506-8.091 7.337-8.911 10.948-.021.091-.003.172.051.241.071.089.156.089.188.089h25.663c.202 0 .391-.124.459-.3 1.184-3.062.619-5.747-.064-7.46-.702-1.763-.816-3.67-.33-5.517l8.687-33.008c.316-1.203.378-2.435.185-3.663l-2.068-13.097c-.413-2.611-.075-5.271.975-7.692 14.072-32.44 10.52-54.501 7.15-64.764-1.295-3.945-3.466-7.297-6.277-9.695-9.539-8.134-25.06-6.31-53.237-2.997-6.002.706-12.805 1.505-20.133 2.269-14.268 1.487-27.16-.363-38.36-5.497-1.212 2.322-2.711 4.489-4.475 6.465-3.022 3.387-6.544 5.979-10.485 7.72-1.063 5.153-4.073 9.724-8.409 12.698-4.742 3.253-10.666 4.346-16.254 2.997-.208-.05-.417-.105-.63-.165-3.495 4.303-8.049 6.703-12.607 6.706.059.875.116 1.755.173 2.644.495 7.643 1.007 15.546 2.697 24.333 3.731 19.402 20.541 25.533 27.595 27.268 2.338.576 4.123 2.392 4.66 4.741 3.542 15.49 2.104 36.974 1.58 43.189-.157 1.866-1.262 3.494-2.957 4.354-4.27 2.169-6.003 5.711-6.698 8.472h23.984c1.127-4.377-.24-7.363-.893-8.459-.466-.781-.763-1.61-.884-2.464-.581-4.128-2.054-18.369 3.389-28.347 3.886-7.124 4.609-13.313 4.695-16.368.036-1.294.636-2.498 1.646-3.304 1.02-.814 2.342-1.135 3.631-.878 29.576 5.887 55.44-3.751 65.188-8.168.875-.397 1.8-.595 2.726-.595z"
     id="path1031" />
  <path
     d="m179.862 207.24c-12.752 0-23.344-9.555-24.637-22.225-.131-1.287.741-2.462 2.011-2.708 11.754-2.28 20.917-5.977 25.332-7.977 1.651-.748 3.487-.791 5.169-.12 1.68.67 2.982 1.964 3.664 3.642 2.35 5.78 6.722 9.945 9.975 12.421.95.723 1.256 2.018.73 3.09-4.195 8.56-12.719 13.877-22.244 13.877zm-19.309-20.507c1.952 8.981 9.892 15.507 19.309 15.507 6.937 0 13.208-3.534 16.798-9.343-3.468-2.932-7.513-7.316-9.89-13.161-.165-.407-.479-.719-.885-.881-.407-.162-.852-.151-1.253.031-5.25 2.378-13.558 5.593-24.079 7.847z"
     id="path1033" />
  <path
     d="m193.223 207.241c-.917 0-1.8-.506-2.238-1.382l-1.484-2.968c-.618-1.235-.117-2.737 1.118-3.354 1.235-.619 2.737-.117 3.354 1.118l1.484 2.968c.618 1.235.117 2.737-1.118 3.354-.359.179-.74.264-1.116.264z"
     id="path1035" />
  <path
     d="m179.93 210.559c-1.357 0-2.47-1.085-2.499-2.448l-.069-3.319c-.029-1.38 1.067-2.522 2.448-2.551 1.375-.02 2.522 1.067 2.551 2.448l.069 3.319c.029 1.38-1.067 2.522-2.448 2.551-.017 0-.035 0-.052 0z"
     id="path1037" />
  <path
     d="m166.359 207.166c-.415 0-.834-.104-1.222-.321-1.204-.676-1.632-2.2-.956-3.404l1.816-3.234c.676-1.204 2.2-1.631 3.404-.956 1.204.676 1.632 2.2.956 3.404l-1.816 3.234c-.458.818-1.308 1.277-2.182 1.277z"
     id="path1039" />
  <path
     d="m157.081 196.805c-.931 0-1.824-.522-2.255-1.417-.599-1.244-.075-2.738 1.169-3.336l3.068-1.476c1.245-.597 2.738-.075 3.336 1.169.599 1.244.075 2.738-1.169 3.336l-3.068 1.476c-.349.168-.718.248-1.081.248z"
     id="path1041" />
  <path
     d="m210.634 247.318h-25.663c-1.603 0-3.095-.718-4.095-1.969-1.006-1.26-1.378-2.888-1.02-4.467.882-3.887 3.592-10.931 11.826-14.441.381-.163.739-.409 1.062-.732.794-.794 2.02-.962 2.999-.41 2.076 1.173 9.439 4.958 17.091 4.459 1.296-.074 2.44.836 2.635 2.119.053.347.118.611.206.831.83 2.083 1.945 6.297.082 11.114-.81 2.092-2.869 3.496-5.123 3.496zm2.79-4.398h.01zm-18.653-12.469c-.361.226-.737.423-1.127.589-5.88 2.507-8.092 7.338-8.912 10.949-.021.091-.003.172.051.241.071.089.156.089.188.089h25.663c.202 0 .391-.124.459-.3 1.129-2.919.667-5.497.03-7.215-6.808-.07-12.952-2.62-16.352-4.353z"
     id="path1043" />
  <path
     d="m106.083 247.318h-24.748c-1.409 0-2.724-.629-3.609-1.727-.875-1.086-1.209-2.487-.916-3.844.687-3.174 2.825-9.002 9.434-12.36.122-.062.18-.168.204-.226.512-1.247 1.919-1.861 3.182-1.393 2.729 1.013 9.821 3.228 16.717 1.886 1.144-.222 2.284.372 2.759 1.432l.107.242c.983 1.648 3.11 6.237 1.314 12.646-.551 1.969-2.379 3.344-4.444 3.344zm-24.272-5h23.984c.878-3.409.243-5.973-.389-7.459-6.244.753-12.256-.68-15.751-1.795-.345.307-.73.571-1.147.782-4.269 2.169-6.003 5.712-6.697 8.472z"
     id="path1045" />
  <path
     d="m81.335 247.318h-14.843c-1.409 0-2.724-.629-3.609-1.727-.875-1.086-1.209-2.487-.916-3.844.687-3.175 2.827-9.003 9.434-12.36.137-.069.228-.19.239-.317 2.095-24.811-.708-38.186-2.213-45.371-.46-2.196-.824-3.931-.943-5.398-.077-.95.392-1.861 1.21-2.349.819-.488 1.843-.469 2.642.049 5.166 3.351 10.293 4.922 12.89 5.561 2.338.576 4.123 2.392 4.66 4.741 3.542 15.49 2.104 36.974 1.58 43.189-.157 1.866-1.262 3.494-2.957 4.354-4.292 2.181-6.021 5.749-6.708 8.516 1.159.218 2.035 1.235 2.035 2.457-.002 1.38-1.121 2.499-2.501 2.499zm-14.367-5h9.756c.017-.191.046-.383.087-.574.686-3.171 2.825-9 9.434-12.357.137-.069.228-.19.238-.315.509-6.034 1.909-26.869-1.471-41.655-.113-.496-.489-.879-.981-1-2.095-.515-5.667-1.575-9.667-3.536 1.568 7.485 4.395 21.305 2.258 46.611-.158 1.867-1.264 3.495-2.958 4.354-4.268 2.168-6.002 5.712-6.696 8.472z"
     id="path1047" />
  <path
     d="m184.971 247.318h-14.844c-1.603 0-3.095-.717-4.094-1.968-1.006-1.26-1.378-2.888-1.021-4.467.882-3.887 3.592-10.932 11.826-14.442.381-.163.739-.41 1.063-.733.793-.794 2.02-.962 2.998-.409 1.175.664 4.341 2.329 8.359 3.437.909.251 1.6.991 1.786 1.916.187.924-.163 1.875-.903 2.458-3.417 2.693-4.828 6.315-5.41 8.879-.021.091-.003.172.051.241.071.089.156.089.188.089 1.381 0 2.5 1.119 2.5 2.5s-1.118 2.499-2.499 2.499zm-5.04-16.87c-.362.228-.74.425-1.131.592-5.88 2.507-8.092 7.338-8.912 10.949-.021.091-.003.172.051.241.071.089.155.089.187.089h9.602c-.022-.476.019-.958.127-1.436.559-2.463 1.714-5.683 4.101-8.645-1.619-.628-2.994-1.269-4.025-1.79zm2.363 10.988h.01z"
     id="path1049" />
  <path
     d="m81.335 247.318h-14.843c-1.409 0-2.724-.629-3.609-1.727-.875-1.086-1.209-2.487-.916-3.844.687-3.175 2.827-9.003 9.434-12.36.122-.062.181-.169.205-.228.513-1.245 1.919-1.861 3.182-1.391 2.083.774 6.296 2.099 11.101 2.278 1.086.041 2.021.778 2.314 1.824.292 1.046-.124 2.162-1.031 2.761-3.36 2.217-4.777 5.346-5.371 7.729 1.159.218 2.035 1.236 2.035 2.458-.001 1.381-1.12 2.5-2.501 2.5zm.363-4.514v.002c-.001-.001 0-.001 0-.002zm-14.73-.486h9.756c.017-.19.046-.38.087-.57.389-1.799 1.291-4.625 3.359-7.333-2.086-.387-3.92-.891-5.359-1.352-.345.307-.729.57-1.146.782-4.269 2.169-6.003 5.713-6.697 8.473zm12.286-.041h.01z"
     id="path1051" />
  <path
     d="m184.971 247.318h-14.844c-1.603 0-3.095-.717-4.094-1.968-1.006-1.26-1.378-2.888-1.021-4.467.882-3.887 3.592-10.932 11.826-14.442.818-.349 1.491-1.04 1.895-1.945 1.838-4.125 5.229-12.471 7.286-22.02.172-.798.723-1.462 1.476-1.779 4.423-1.856 8.018-5.243 10.122-9.536.329-.671.942-1.16 1.669-1.333.729-.171 1.495-.009 2.089.444.789.6 1.606 1.176 2.367 1.665 2.193 1.412 3.347 4.008 2.94 6.613-1.846 11.816-6.143 22.603-8.541 27.98-.919 2.062-2.517 3.663-4.5 4.509-5.88 2.506-8.091 7.337-8.911 10.949-.021.091-.003.172.051.24.071.089.156.089.188.089 1.381 0 2.5 1.119 2.5 2.5s-1.117 2.501-2.498 2.501zm5.661-42.552c-2.168 9.469-5.495 17.642-7.332 21.765-.919 2.062-2.518 3.663-4.5 4.509-5.88 2.506-8.091 7.337-8.911 10.949-.021.091-.003.172.051.24.071.089.155.089.187.089h9.602c-.022-.476.019-.958.127-1.436.882-3.887 3.592-10.931 11.826-14.441.818-.349 1.491-1.04 1.895-1.945 1.848-4.147 6.345-15.052 8.167-26.716.102-.652-.175-1.295-.706-1.637-.122-.079-.245-.159-.368-.24-2.461 3.806-5.93 6.877-10.038 8.863z"
     id="path1053" />
  <path
     d="m59.132 160.236c-.018 0-.035 0-.053 0-1.224-.003-2.471-.113-3.706-.327-.961-.167-1.738-.877-1.989-1.82-.284-1.064-.495-1.97-.664-2.85-1.75-9.097-2.272-17.161-2.778-24.959-.124-1.911-.246-3.791-.384-5.644-.061-.809.276-1.598.902-2.114.626-.517 1.465-.696 2.247-.484l.208.062c3.944.951 8.343-1.286 11.47-5.844.653-.95 1.871-1.331 2.948-.923.699.265 1.282.451 1.836.584 7.239 1.746 14.649-1.948 17.614-8.788.268-.617.771-1.1 1.399-1.34.627-.24 1.325-.219 1.936.062 2.127.974 3.769 2.444 4.882 4.372 3.521 6.097.102 14.613-7.783 19.388-3.169 1.918-5.154 5.221-5.31 8.833-.525 12.23-10.525 21.791-22.775 21.792zm-1.317-5.053c.442.035.884.062 1.317.053 9.563 0 17.369-7.462 17.78-17.006.228-5.288 3.112-10.109 7.715-12.896 5.444-3.296 8.155-8.954 6.043-12.611-.199-.344-.428-.659-.69-.945-4.558 7.346-13.359 11.081-21.983 9-.208-.05-.417-.105-.63-.165-3.496 4.303-8.05 6.703-12.609 6.706.059.873.116 1.752.173 2.639.496 7.645 1.008 15.549 2.698 24.338.057.288.118.581.186.887z"
     id="path1055" />
  <path
     d="m156.854 131.043c-5.927 0-11.228-3.536-13.504-9.007-.5-1.201-1.437-2.03-2.507-2.218-11.128-1.955-19.023-11.961-18.364-23.276.065-1.122.235-2.274.518-3.526.289-1.28 1.518-2.116 2.814-1.921 6.15.934 12.762 1.044 19.652.327 7.287-.759 14.064-1.555 20.042-2.258 6.656-.782 12.405-1.457 17.734-1.964 1.159-.11 2.246.598 2.611 1.706.526 1.597.84 3.236.933 4.872.483 8.534-4.799 16.479-12.846 19.323-1.489.526-2.451 1.825-2.451 3.309 0 8.069-6.564 14.633-14.632 14.633zm-29.348-34.676c-.015.157-.026.312-.036.466-.511 8.78 5.61 16.544 14.238 18.06 2.759.485 5.099 2.437 6.258 5.222 1.499 3.601 4.987 5.928 8.888 5.928 5.311 0 9.632-4.322 9.632-9.634 0-3.577 2.326-6.801 5.786-8.023 6.058-2.141 9.883-7.897 9.519-14.325-.032-.558-.099-1.118-.201-1.675-4.685.474-9.754 1.069-15.502 1.744-5.994.704-12.788 1.502-20.108 2.265-6.412.668-12.614.657-18.474-.028z"
     id="path1057" />
  <path
     d="m221.643 173.006c-.111 0-.224-.007-.336-.022-5.188-.701-9.365-4.792-10.158-9.949-.131-.855-.73-1.573-1.525-1.828-8.642-2.769-14.449-10.726-14.449-19.799 0-10.727 8.028-19.617 18.673-20.68.826-.083 1.546-.522 1.879-1.146 2.824-5.304 8.528-8.368 14.532-7.815 1.123.104 2.037.947 2.231 2.058 2.089 11.923 2.302 31.603-8.541 57.642-.392.941-1.309 1.539-2.306 1.539zm6.249-56.256c-3.258.319-6.18 2.228-7.753 5.182-1.124 2.111-3.291 3.521-5.794 3.772-8.079.807-14.17 7.558-14.17 15.705 0 6.891 4.411 12.935 10.975 15.038 2.585.829 4.525 3.117 4.942 5.83.361 2.351 1.942 4.319 4.068 5.245 8.965-22.47 9.315-39.684 7.732-50.772z"
     id="path1059" />
  <path
     d="m144.729 179.038c-4.214 0-8.242-1.464-11.486-4.204-.66-.557-1.549-.825-2.497-.773-4.041.254-8.07-1.212-11.045-4.009-3.02-2.839-4.683-6.686-4.683-10.831 0-2.363.543-4.625 1.614-6.726.451-.883.213-1.94.031-2.492-1.329-4.027-.614-8.518 1.912-12.012 2.534-3.505 6.477-5.515 10.818-5.515 4.681 0 8.94 2.377 11.395 6.359 1.605 2.603 4.014 4.322 6.607 4.716 9.08 1.379 15.594 9.35 15.152 18.54-.425 8.86-7.409 16.117-16.243 16.879-.526.045-1.052.068-1.575.068zm-13.728-9.985c2.035 0 3.959.686 5.468 1.961 2.623 2.215 5.961 3.272 9.406 2.975 6.352-.548 11.373-5.767 11.679-12.138.318-6.622-4.372-12.364-10.909-13.356-4.049-.615-7.735-3.179-10.113-7.035-1.538-2.494-4.207-3.983-7.139-3.983-2.717 0-5.183 1.256-6.766 3.445-1.589 2.198-2.043 5.007-1.216 7.516.736 2.23.621 4.479-.325 6.331-.708 1.389-1.068 2.888-1.068 4.453 0 2.751 1.104 5.304 3.108 7.188 1.974 1.856 4.637 2.824 7.312 2.662.189-.013.377-.019.563-.019z"
     id="path1061" />
  <path
     d="m241.266 218.568c-.48 0-.965-.11-1.415-.334-1.131-.564-1.806-1.739-1.721-2.995.037-.534-.152-1.701-1.825-3.519-2.611-2.837-3.538-6.269-3.804-9.026-.883.212-1.818.03-2.577-.528-.981-.721-1.448-1.911-1.219-3.105.323-1.676-.052-4.438-.225-5.361-1.988-9.057 2.385-13.624 5.17-15.533.692-.474 1.574-.57 2.352-.255.777.314 1.345.997 1.512 1.819.214 1.05.444 2 .704 2.902.13.452.435.829.857 1.062.449.246.965.304 1.458.158 1.012-.297 1.567-1.329 1.277-2.353-.153-.542-.308-1.14-.461-1.773-.211-.875.064-1.795.72-2.411.656-.615 1.591-.832 2.452-.564 7.221 2.243 13.851 9.723 10.803 23.99-.304 1.424-1.528 2.417-2.93 2.474-.621 6.329-5.796 11.748-9.064 14.58-.586.509-1.32.772-2.064.772zm-6.962-21.974c.588 0 1.176.165 1.689.492.954.608 1.505 1.687 1.441 2.814-.092 1.603-.027 5.634 2.55 8.435 1.067 1.159 1.865 2.318 2.391 3.471 2.488-2.615 5.385-6.551 5.056-10.457-.083-.981.283-1.923 1.003-2.585.635-.584 1.468-.874 2.313-.812.558-3.833.756-10.74-4.01-14.517-.506 2.41-2.278 4.476-4.779 5.211-1.792.526-3.666.323-5.291-.569-1.216-.668-2.175-1.662-2.786-2.866-.993 1.974-1.163 4.48-.502 7.494.061.321.365 2 .436 3.927.163-.026.326-.038.489-.038zm18.262 1.649h.003c-.001.001-.002 0-.003 0z"
     id="path1063" />
  <path
     d="m239.982 188.933c-1.149 0-2.282-.289-3.315-.856-1.599-.878-2.755-2.321-3.255-4.062-3.368-11.72-1.385-24.708.532-37.269 1.129-7.396 2.297-15.043 2.297-22.161 0-6.99-2.673-11.307-8.17-13.198-.789-.271-1.39-.917-1.604-1.724-.261-.985-.544-1.943-.84-2.846-.886-2.696-2.182-5.112-3.854-7.179-.635-.786-.735-1.875-.254-2.764.481-.888 1.451-1.397 2.454-1.295 9.906 1.021 17.168 4.669 21.584 10.844 8.66 12.109 4.372 30.719 1.534 43.034-.607 2.635-1.131 4.91-1.432 6.71-1.876 11.263-.203 19.854.962 23.972 1.027 3.632-1.065 7.449-4.664 8.507-.651.192-1.316.287-1.975.287zm-9.025-81.793c4.957 2.095 10.285 6.819 10.285 17.445 0 7.497-1.197 15.335-2.354 22.916-1.836 12.028-3.735 24.466-.669 35.133.13.452.435.829.857 1.061.449.246.965.304 1.458.158 1.012-.297 1.567-1.329 1.277-2.353-1.562-5.522-3.018-14.543-1.083-26.155.325-1.951.865-4.296 1.491-7.011 2.636-11.439 6.62-28.728-.729-39.002-2.787-3.897-6.957-6.499-12.666-7.881.599 1.212 1.118 2.483 1.552 3.807.201.609.395 1.238.581 1.882z"
     id="path1065" />
  <path
     d="m72.752 121.343c-1.589 0-3.185-.187-4.754-.565-4.755-1.147-8.935-3.979-11.769-7.974-.469-.662-1.299-.861-2.018-.487-4.344 2.263-9.354 2.877-14.11 1.729-5.607-1.353-10.391-5.044-13.125-10.126-2.732-5.078-3.167-11.125-1.192-16.591 3.235-8.957 12.441-14.489 21.877-13.149 5.592.791 10.465 3.749 13.723 8.328.479.673 1.324.878 2.056.496 4.988-2.589 10.675-2.998 16.011-1.153 9.012 3.116 14.678 12.233 13.473 21.68-.735 5.765-3.88 10.949-8.628 14.222-3.421 2.358-7.459 3.59-11.544 3.59zm-17.785-14.219c2.062 0 4.059.981 5.339 2.788 2.135 3.009 5.283 5.142 8.864 6.006 4.226 1.021 8.705.188 12.288-2.281 3.632-2.504 5.942-6.317 6.506-10.738.907-7.111-3.36-13.976-10.147-16.322-4.026-1.393-8.315-1.086-12.073.865-2.957 1.535-6.504.679-8.435-2.036-2.454-3.45-6.129-5.678-10.349-6.276-7.117-1.004-14.039 3.155-16.475 9.898-1.514 4.191-1.197 8.639.893 12.523 2.062 3.832 5.669 6.615 9.896 7.635 3.581.864 7.355.401 10.627-1.304.984-.512 2.034-.758 3.066-.758z"
     id="path1067" />
  <path
     d="m54.756 127.318c-1.012 0-2.023-.118-3.024-.359-6.005-1.449-10.348-7.05-11.334-14.617-.1-.768.161-1.539.708-2.087.546-.548 1.317-.812 2.084-.716 3.088.391 6.182-.164 8.94-1.6 2.948-1.537 6.482-.682 8.406 2.028 1.71 2.411 4.078 4.261 6.847 5.351.708.279 1.25.865 1.474 1.592.224.728.104 1.517-.326 2.145-3.612 5.28-8.69 8.263-13.775 8.263zm-8.765-12.677c1.215 3.925 3.72 6.687 6.914 7.458 3.239.781 6.771-.576 9.662-3.594-2.4-1.433-4.479-3.347-6.109-5.646-.469-.661-1.298-.862-2.018-.486-2.642 1.376-5.514 2.142-8.449 2.268z"
     id="path1069" />
  <path
     d="m54.756 127.318c-1.012 0-2.023-.118-3.024-.359-6.005-1.449-10.348-7.05-11.334-14.617-.1-.768.161-1.539.708-2.087.546-.548 1.317-.812 2.084-.716 3.088.391 6.182-.164 8.94-1.6 2.948-1.537 6.482-.682 8.406 2.028 1.71 2.411 4.078 4.261 6.847 5.351.708.279 1.25.865 1.474 1.592.224.728.104 1.517-.326 2.145-3.612 5.28-8.69 8.263-13.775 8.263zm-8.765-12.677c1.215 3.925 3.72 6.687 6.914 7.458 3.239.781 6.771-.576 9.662-3.594-2.4-1.433-4.479-3.347-6.109-5.646-.469-.661-1.298-.862-2.018-.486-2.642 1.376-5.514 2.142-8.449 2.268z"
     id="path1071" />
  <path
     d="m42.001 97.128c-.768 0-1.526-.353-2.016-1.019-1.174-1.598-1.581-3.619-1.116-5.545.42-1.741 1.493-3.215 3.021-4.149s3.331-1.216 5.07-.797c1.741.42 3.214 1.493 4.148 3.021.935 1.529 1.218 3.329.797 5.07-.324 1.342-1.673 2.171-3.017 1.844-1.342-.324-2.168-1.674-1.844-3.017.107-.443.035-.9-.203-1.289s-.613-.662-1.056-.769c-.443-.106-.9-.035-1.29.203-.389.238-.662.613-.769 1.056-.118.49-.015 1.004.284 1.411.818 1.112.579 2.677-.533 3.495-.443.327-.961.485-1.476.485z"
     id="path1073" />
  <path
     d="m75.166 105.131c-.917 0-1.799-.506-2.238-1.382-.618-1.234-.118-2.736 1.117-3.354.452-.226.78-.637.898-1.127.106-.442.035-.901-.203-1.29s-.612-.662-1.055-.769c-.444-.107-.902-.034-1.29.203-.389.238-.662.612-.769 1.055-.324 1.342-1.672 2.17-3.017 1.844-1.342-.324-2.168-1.674-1.844-3.017.42-1.741 1.493-3.214 3.021-4.148s3.331-1.217 5.07-.797c1.741.42 3.214 1.493 4.148 3.021s1.217 3.329.797 5.07c-.464 1.926-1.748 3.539-3.521 4.426-.357.18-.738.265-1.114.265z"
     id="path1075" />
  <path
     d="m90.429 105.801c-.554 0-1.101-.184-1.549-.538-.693-.547-1.046-1.418-.929-2.293.005-.036.013-.086.021-.133.862-7.109-3.397-13.924-10.154-16.261-4.029-1.393-8.317-1.085-12.074.865-2.956 1.535-6.503.679-8.434-2.035-2.455-3.45-6.13-5.679-10.35-6.276-7.1-1.004-14 3.132-16.454 9.841-.013.043-.028.088-.039.119-.292.834-1.004 1.452-1.871 1.625s-1.761-.126-2.35-.785c-3.204-3.578-5.474-7.869-6.747-12.751-3.604-13.825 2.28-28.295 15.739-38.708 12.476-9.651 27.347-12.515 37.008-7.124 1.482.827 3.164 1.233 4.857 1.172 11.034-.404 22.985 8.939 29.687 23.218 7.229 15.405 5.867 30.966-3.646 41.626-3.36 3.765-7.337 6.548-11.82 8.271-.289.112-.594.167-.895.167zm-17.68-25.089c2.245 0 4.503.378 6.702 1.138 7.654 2.646 12.894 9.621 13.561 17.451 2.345-1.36 4.489-3.123 6.403-5.268 8.136-9.117 9.201-22.639 2.85-36.173-5.771-12.295-16.06-20.666-24.983-20.345-2.603.089-5.191-.531-7.471-1.803-7.812-4.358-20.771-1.598-31.512 6.712-11.824 9.147-17.043 21.668-13.961 33.491.725 2.781 1.829 5.327 3.294 7.606 4.16-6.659 12.006-10.479 20.029-9.343 5.592.791 10.465 3.749 13.723 8.328.479.672 1.324.876 2.056.496 2.932-1.521 6.106-2.29 9.309-2.29z"
     id="path1077" />
  <path
     d="m28.109 90.763c-.704 0-1.383-.297-1.862-.833-3.204-3.578-5.474-7.869-6.747-12.751-2.863-10.98.227-22.376 8.7-32.089.18-.207.393-.382.63-.52 5.178-3.001 11.081-3.918 16.621-2.581 12.836 3.098 20.465 17.28 17.005 31.616-.752 3.115-1.98 6.05-3.652 8.725-.391.625-1.038 1.046-1.768 1.15-.729.103-1.469-.119-2.019-.611-2.259-2.02-5.045-3.312-8.058-3.739-7.095-.999-14 3.133-16.453 9.841-.013.043-.028.088-.039.119-.292.834-1.004 1.452-1.871 1.625-.161.032-.325.048-.487.048zm3.583-42.068c-7.145 8.356-9.757 18.009-7.355 27.222.725 2.781 1.829 5.327 3.294 7.606 4.16-6.659 12.006-10.479 20.029-9.343 2.961.419 5.759 1.471 8.23 3.079.729-1.532 1.3-3.147 1.705-4.826 2.812-11.655-3.162-23.131-13.318-25.583-4.159-1.005-8.613-.349-12.585 1.845zm28.334 24.324h.01z"
     id="path1079" />
  <path
     d="m118.013 78.03c-3.132 0-6.517-.62-10.148-2.094-.908-.369-1.517-1.233-1.558-2.212-.21-5.053-1.544-10.397-3.858-15.455-.349-.763-.292-1.65.151-2.362s1.214-1.154 2.053-1.177c3.143-.087 7.599-.624 10.976-2.688 8.209-5.018 18.336-4.03 26.429 2.574 2.158 1.762 2.673 4.848 1.199 7.179-2.739 4.331-11.536 16.235-25.244 16.235zm-6.814-6.187c14.676 4.955 24.306-7.146 27.834-12.722.126-.199.069-.465-.135-.632-6.398-5.222-14.314-6.059-20.66-2.181-3.079 1.882-6.697 2.766-9.879 3.156 1.533 4.09 2.499 8.294 2.84 12.379z"
     id="path1081" />
  <path
     d="m107.795 67.775c-.085 0-.169 0-.254-.001-1.133-.014-2.116-.788-2.394-1.887-.646-2.554-1.553-5.117-2.697-7.617-.349-.763-.292-1.649.151-2.362.443-.712 1.214-1.154 2.053-1.177 3.143-.087 7.599-.624 10.976-2.688 8.209-5.018 18.336-4.03 26.429 2.574h.001c1.445 1.181 2.192 2.991 1.999 4.842-.08.759-.501 1.44-1.145 1.85-.644.409-1.44.502-2.16.252-4.759-1.649-12.142-2.571-20.292 2.411-4.132 2.524-8.393 3.802-12.667 3.803zm.565-8.311c.403 1.07.767 2.147 1.09 3.226 2.8-.284 5.619-1.284 8.403-2.986 5.723-3.497 11.189-4.487 15.718-4.427-5.141-2.123-10.662-1.824-15.333 1.031-3.079 1.882-6.696 2.766-9.878 3.156z"
     id="path1083" />
  <path
     d="m25.291 55.967c-.073 0-.146-.003-.22-.01-20.989-1.85-24.479-22.455-25.049-28.726-.25-2.747 1.617-5.258 4.341-5.841 10.212-2.19 19.676 1.553 24.695 9.762 2.064 3.377 5.785 5.887 8.542 7.398.736.403 1.22 1.148 1.29 1.984s-.284 1.651-.943 2.171c-2.68 2.115-5.072 4.48-7.111 7.03-.002.003-.061.076-.063.079l-.073.09c-.361.457-.715.923-1.057 1.397l-2.121-1.33 2.034 1.454c-.322.451-.634.908-.936 1.372-.004.007-.052.079-.057.086-.347.537-.644 1.024-.929 1.518l-.091.16c-.006.011-.033.06-.04.071l-.037.064c-.445.789-1.279 1.271-2.175 1.271zm.051-2.591-.042-.024.042.024-.042-.023zm-15.356-27.593c-1.488 0-3.019.163-4.576.496-.258.056-.43.266-.409.5.597 6.572 3.648 21.729 18.966 24.016.117-.189.236-.377.357-.565l.075-.114c.37-.569.724-1.087 1.089-1.598l.1-.142c.384-.532.782-1.058 1.191-1.576l.103-.128c1.596-1.996 3.352-3.864 5.26-5.599-2.654-1.799-5.47-4.235-7.352-7.314-3.129-5.121-8.573-7.976-14.804-7.976z"
     id="path1085" />
  <path
     d="m30.195 49.103c-.377 0-.758-.085-1.113-.262-3.904-1.942-7.189-5.063-9.764-9.276-4.981-8.149-11.972-10.697-16.96-11.4-.756-.106-1.421-.552-1.808-1.21-.386-.658-.451-1.457-.175-2.168.672-1.736 2.163-3.006 3.988-3.396 10.209-2.19 19.676 1.553 24.694 9.762 2.064 3.377 5.785 5.887 8.542 7.398.736.403 1.22 1.148 1.29 1.984s-.284 1.651-.942 2.171c-2.159 1.704-4.135 3.57-5.875 5.548-.486.553-1.175.849-1.877.849zm-18.581-23.254c4.072 2 8.473 5.386 11.971 11.108 1.701 2.784 3.753 4.96 6.116 6.49.78-.813 1.595-1.605 2.441-2.375-2.654-1.798-5.47-4.235-7.351-7.313-2.854-4.67-7.633-7.455-13.177-7.91z"
     id="path1087" />
  <path
     d="m104.722 59.729c-.976 0-1.865-.569-2.273-1.46-1.752-3.83-4.066-7.482-6.692-10.563-.589-.691-.757-1.647-.438-2.498s1.073-1.461 1.971-1.596c5.386-.807 15.13-3.187 19.873-10.058 1.515-2.195 4.135-3.143 6.675-2.416 2.526.723 4.238 2.9 4.361 5.547.343 7.338-1.337 13.126-4.994 17.201-.308.343-.704.594-1.146.726l-.387.109c-1.201.395-2.356.928-3.435 1.587-4.317 2.639-9.695 3.316-13.446 3.419-.022.002-.046.002-.069.002zm-2.571-11.947c1.533 2.153 2.908 4.448 4.11 6.867 2.94-.218 6.534-.874 9.369-2.607 1.349-.824 2.79-1.499 4.287-2.006 2.446-3.053 3.552-7.462 3.288-13.118-.032-.671-.479-.898-.743-.974-.275-.078-.79-.123-1.185.449-4.567 6.617-12.31 9.834-19.126 11.389z"
     id="path1089" />
  <path
     d="m36.398 43.242c-.411 0-.824-.102-1.201-.308-3.291-1.802-7.768-4.857-10.407-9.175-.721-1.179-1.616-2.284-2.661-3.284-.334-.32-.573-.726-.69-1.173-1.385-5.288-.238-11.195 3.407-17.557 1.318-2.3 3.834-3.457 6.412-2.948 2.592.511 4.492 2.55 4.839 5.194 1.087 8.283 8.683 14.849 13.113 18.025.738.529 1.131 1.417 1.027 2.319s-.689 1.677-1.529 2.023c-3.737 1.544-7.458 3.738-10.762 6.345-.449.358-.997.539-1.548.539zm-10.269-15.842c1.127 1.155 2.11 2.414 2.928 3.751 1.732 2.835 4.631 5.058 7.149 6.592 2.169-1.601 4.436-3.015 6.777-4.23-5.363-4.494-10.795-10.893-11.842-18.87-.091-.689-.571-.884-.85-.939-.272-.053-.771-.055-1.104.528-2.814 4.911-3.841 9.337-3.058 13.168z"
     id="path1091" />
  <path
     d="m92.22 79.292c-.191 0-.386-.022-.581-.068-1.343-.32-2.173-1.667-1.854-3.011.175-.735.053-1.494-.343-2.137-.396-.644-1.019-1.094-1.753-1.269-.735-.175-1.495-.053-2.138.343s-1.094 1.019-1.269 1.754c-.32 1.343-1.666 2.174-3.011 1.854-1.343-.32-2.173-1.667-1.854-3.011 1-4.199 5.226-6.805 9.427-5.804 2.034.483 3.758 1.731 4.854 3.512 1.096 1.78 1.433 3.881.949 5.916-.271 1.148-1.296 1.921-2.427 1.921z"
     id="path1093" />
  <path
     d="m49.217 68.932c-.194 0-.392-.022-.588-.07-1.342-.324-2.168-1.675-1.844-3.017.177-.734.058-1.494-.336-2.138s-1.016-1.097-1.75-1.274-1.493-.058-2.138.336-1.097 1.016-1.274 1.75c-.324 1.342-1.679 2.167-3.017 1.844-1.342-.324-2.167-1.674-1.844-3.017.491-2.033 1.743-3.753 3.527-4.843 1.784-1.091 3.887-1.421 5.918-.93 2.033.491 3.753 1.743 4.843 3.527s1.421 3.886.93 5.918c-.275 1.145-1.299 1.914-2.427 1.914z"
     id="path1095" />
  <path
     d="m55.553 120.323c-.745 0-1.481-.087-2.207-.262-3.243-.782-5.898-3.242-7.68-7.113-.326-.708-.303-1.529.063-2.217.365-.689 1.032-1.168 1.801-1.295 1.606-.265 3.138-.773 4.553-1.51 2.949-1.535 6.483-.682 8.406 2.028.857 1.208 1.894 2.288 3.081 3.208.604.468.962 1.188.969 1.953s-.337 1.492-.933 1.971c-2.662 2.141-5.407 3.237-8.053 3.237zm-3.704-6.855c.711.81 1.595 1.473 2.671 1.733 1.169.282 2.356.036 3.436-.438-.554-.606-1.069-1.246-1.544-1.915-.469-.661-1.299-.861-2.018-.487-.823.428-1.672.797-2.545 1.107z"
     id="path1097" />
</svg>
